<?xml version="1.0" encoding="UTF-8"?>
<svg width="76px" height="76px" viewBox="0 0 76 76" version="1.1" xmlns="http://www.w3.org/2000/svg" xmlns:xlink="http://www.w3.org/1999/xlink">
    <!-- Generator: Sketch 48.2 (47327) - http://www.bohemiancoding.com/sketch -->
    <title>icon/life/unum-sand-darker</title>
    <desc>Created with Sketch.</desc>
    <defs></defs>
    <g id="Symbols" stroke="none" stroke-width="1" fill="none" fill-rule="evenodd">
        <g id="icon/life/unum-sand-darker">
            <g>
                <circle id="Oval-14-Copy-2" fill="#A9C2D5" cx="38" cy="38" r="38"></circle>
                <g id="icon-life-unum-blue" transform="translate(16.150000, 14.250000)" fill="#015294">
                    <path d="M0.915945383,25.1858246 C0.510144662,24.99579 0.218273122,24.6718545 0.0835539543,24.256705 C0.0542028966,24.195466 0.0263738889,24.1321115 0,24.0667288 L0,23.3906631 C0.0147246284,23.3619433 0.0290882287,23.3329775 0.0432736108,23.3038858 C0.20573428,22.575727 0.815929523,22.0734005 1.70245435,22.0528733 C3.33602593,22.0152154 4.97137739,22.0198339 6.60494897,22.0539391 C6.85460479,22.0590553 7.08592241,22.1108535 7.29220817,22.2002769 C7.6658271,22.3458001 7.96747526,22.617268 8.15753461,23.0524527 C8.44302696,23.7072026 8.33979407,24.3147024 7.86385482,24.8504391 C7.50075981,25.2593469 7.01342935,25.3893732 6.49477304,25.3929259 C4.94449973,25.4032285 3.39387044,25.3947022 1.84324115,25.3975443 C1.48189374,25.3982273 1.17538535,25.3242747 0.915945383,25.1858246 Z M10.8321035,23.9860369 C10.6757641,18.1571915 15.2215301,13.0783971 21.4075347,12.9074952 C27.2447567,12.7465102 32.3161807,17.2775591 32.524854,23.4515139 C32.6586699,29.2754009 28.1506639,34.3674179 21.9623407,34.5492284 C16.1151819,34.721122 10.9983797,30.181809 10.8321035,23.9860369 Z M20.5509997,8.60944543 C20.1412719,8.21190604 20.0109849,7.6783009 20.0074251,7.1105905 C19.9967459,5.41314352 20.0056452,3.71534127 20.0027974,2.01789428 C20.0010176,0.989052409 20.5050789,0.366631496 21.3362817,0 L22.013703,0 C22.1966745,0.102671029 22.3896132,0.18935522 22.5615493,0.310855193 C23.1218548,0.707684051 23.3386439,1.31092076 23.3429156,2.00901271 C23.3528829,3.721736 23.3571546,5.43481456 23.3411357,7.14753786 C23.3336602,7.93941926 23.0574232,8.59487964 22.3525917,8.93060325 C21.6965289,9.24359002 21.0878108,9.1302611 20.5509997,8.60944543 Z M43.1476142,23.416373 C43.280749,24.1187281 42.917298,24.8583859 42.2156703,25.1806095 C41.9326698,25.3106357 41.5930691,25.358241 41.2769629,25.3688989 C40.5169552,25.3951884 39.7555236,25.3774252 38.9948039,25.3774252 C38.2198453,25.3774252 37.4445306,25.3880831 36.6699279,25.3745831 C35.6151725,25.3564647 34.9067813,24.7031359 34.8861347,23.7517414 C34.8647762,22.7889784 35.5293824,22.0773865 36.5880536,22.0528733 C38.2216252,22.0152154 39.8569766,22.0198339 41.4905482,22.0539391 C42.3573485,22.0717023 43.0030881,22.6522021 43.1476142,23.416373 Z M23.3445175,40.4178896 C23.351637,41.2506262 23.3462973,42.0837181 23.3462973,42.9168101 C23.3462973,43.7651783 23.3566206,44.6135465 23.3434495,45.4619148 C23.3260067,46.5991119 22.653925,47.4052038 21.7202012,47.4357564 C20.7836297,47.4666643 20.0421327,46.7078224 20.0165025,45.5613884 C19.9762773,43.7733493 19.9851766,41.9828234 20.0161465,40.1940738 C20.0296736,39.3993503 20.3742579,38.7716005 21.0951083,38.4834821 C21.7323044,38.2291138 22.3143244,38.3619821 22.8148259,38.8653899 C23.2288254,39.2821135 23.3395338,39.8334818 23.3445175,40.4178896 Z M39.724481,32.2123072 C40.3922911,32.6020308 40.7379433,33.1839517 40.6197594,33.9701489 C40.5186624,34.644083 40.1053748,35.073596 39.463195,35.2885302 C39.0039866,35.4420039 38.5590172,35.357096 38.1589008,35.1307934 C36.7008251,34.3069383 35.2438174,33.4802411 33.8092361,32.6173071 C33.1382223,32.2137283 32.8826319,31.4431627 33.0887417,30.7500444 C33.2930716,30.0622551 33.942015,29.5794525 34.6906314,29.5091105 C35.002822,29.6231499 35.3374389,29.6973999 35.6236432,29.8579788 C36.9980646,30.6292549 38.3632307,31.417939 39.724481,32.2123072 Z M14.4283279,35.0819092 C15.1171405,35.1899092 15.5621098,35.6076986 15.7582523,36.2777247 C15.7970537,36.4102378 15.8102248,36.5502115 15.8547217,36.7921457 C15.7692876,37.0266193 15.6959566,37.3609218 15.5350557,37.6461981 C14.7625889,39.0182241 13.9723232,40.3803027 13.176362,41.739184 C12.7862129,42.4053023 12.2045489,42.7541706 11.4167751,42.635868 C10.7240468,42.5321312 10.2886887,42.1072366 10.081867,41.4443157 C9.93734093,40.9824737 10.0402178,40.5419474 10.2655503,40.1444081 C11.0771745,38.7137636 11.8948502,37.2859613 12.7399361,35.8748564 C13.1105066,35.2559881 13.700358,34.9678698 14.4283279,35.0819092 Z M30.6858714,11.4627408 C30.0155696,12.5956748 28.6596589,12.7342274 27.8761568,11.7515697 C27.4012855,11.1557935 27.423,10.4953595 27.7839591,9.85837278 C28.5806323,8.45188625 29.3876288,7.05072867 30.2145599,5.66165004 C30.6427984,4.94259757 31.4031621,4.64524237 32.1275722,4.84845285 C32.8306238,5.04562386 33.3268537,5.71280792 33.3855897,6.47911038 C33.2684737,6.79032084 33.1887352,7.12284708 33.0271223,7.40883386 C32.2599951,8.76771513 31.4804088,10.1198464 30.6858714,11.4627408 Z M3.51176953,15.1647953 C2.82865254,14.7548217 2.55277152,13.9526376 2.76742475,13.2666246 C2.9831459,12.5763485 3.62959742,12.1042039 4.37750195,12.0480723 C4.6790132,12.1535854 5.00437481,12.2171775 5.27847594,12.3717169 C6.67603576,13.1586247 8.07181571,13.9508613 9.4465931,14.7772032 C10.5465574,15.4390584 10.6380431,16.8071765 9.65127901,17.5599789 C9.0774465,17.997663 8.43740255,17.9983736 7.82619261,17.6548342 C6.37844024,16.8412817 4.93531556,16.0188477 3.51176953,15.1647953 Z M12.6491979,11.4333606 C11.8525247,10.0918872 11.0797019,8.73655856 10.3001156,7.38513781 C9.96763444,6.8089011 9.90533873,6.21099334 10.2428035,5.62338821 C10.5617576,5.06882254 11.0693786,4.80130944 11.7104905,4.79775681 C12.3904037,4.8055726 12.8535278,5.17184883 13.1763976,5.72108555 C13.9816142,7.08991419 14.7772195,8.46442704 15.5589417,9.84711094 C15.9939437,10.616966 15.8750479,11.4269658 15.2901802,11.9712289 C14.7426898,12.4799656 13.9193185,12.558834 13.2632556,12.1115578 C13.0172766,11.9435184 12.8026233,11.6916368 12.6491979,11.4333606 Z M33.1292161,16.8433778 C32.8885767,16.2120753 33.0651405,15.4745491 33.5702697,15.0340229 C33.7076763,14.9146545 33.8522023,14.7981282 34.0091875,14.7071809 C35.3480114,13.9305758 36.6871912,13.1539707 38.0334906,12.3901551 C38.9230734,11.8856815 39.8617808,12.0668657 40.351959,12.8150497 C40.8973135,13.6474311 40.7061547,14.634352 39.8034008,15.1842992 C38.3859063,16.0479438 36.9349502,16.857233 35.4879098,17.6718513 C35.2508301,17.8050749 34.962134,17.846996 34.6972882,17.9311933 C34.0269863,17.8953118 33.3602442,17.4487461 33.1292161,16.8433778 Z M10.2204838,30.6139076 C10.4611233,31.2444995 10.2852714,31.9816704 9.78049812,32.4236177 C9.64344755,32.5433414 9.49963345,32.6605782 9.34264825,32.7515255 C8.00311244,33.5267095 6.66357662,34.3015383 5.3169213,35.0642882 C4.44335741,35.5591696 3.51105757,35.3918407 3.02337114,34.6752751 C2.44918265,33.8322358 2.63001821,32.831815 3.54736708,32.2722756 C4.9637936,31.4079206 6.41510572,30.5996971 7.86214614,29.7857893 C8.09886985,29.6522104 8.38792196,29.6106446 8.65276773,29.5264473 C9.32271362,29.5623289 9.98945574,30.0085393 10.2204838,30.6139076 Z M30.6987222,36.0214379 C31.4939714,37.3643324 32.2678622,38.7193057 33.0481605,40.0707265 C33.3809976,40.6466079 33.447921,41.2430947 33.1090323,41.8321208 C32.7897223,42.3870418 32.2835251,42.6552654 31.6424132,42.6602391 C30.962856,42.6513575 30.4997319,42.2865023 30.1761501,41.7365551 C29.3705776,40.3673712 28.5724805,38.9935688 27.7893344,37.6115955 C27.3536204,36.8424509 27.4718042,36.0335169 28.056672,35.4871223 C28.6151975,34.9655961 29.4627752,34.896675 30.1188381,35.365267 C30.3512901,35.5311749 30.5520603,35.7734643 30.6987222,36.0214379 Z" id="icon-life"></path>
                </g>
            </g>
        </g>
    </g>
</svg>