<?xml version="1.0" encoding="UTF-8"?>
<svg width="76px" height="76px" viewBox="0 0 76 76" version="1.1" xmlns="http://www.w3.org/2000/svg" xmlns:xlink="http://www.w3.org/1999/xlink">
    <!-- Generator: Sketch 48.2 (47327) - http://www.bohemiancoding.com/sketch -->
    <title>icon/accident/unum-sand-darker</title>
    <desc>Created with Sketch.</desc>
    <defs></defs>
    <g id="Symbols" stroke="none" stroke-width="1" fill="none" fill-rule="evenodd">
        <g id="icon/accident/unum-sand-darker">
            <g>
                <path d="M38,76 C58.9868205,76 76,58.9868205 76,38 C76,17.0131795 58.9868205,0 38,0 C17.0131795,0 0,17.0131795 0,38 C0,58.9868205 17.0131795,76 38,76 Z" id="Oval-14" fill="#A9C2D5"></path>
                <path d="M45.2661756,36.6677596 C45.2493641,36.575392 45.245849,36.5345573 45.2342338,36.4962843 C44.9560812,35.5795393 44.6738021,34.6638491 44.4003872,33.745748 C44.339866,33.542479 44.2434296,33.5152057 44.0427623,33.5747248 C42.2152076,34.1179308 40.3824566,34.6444112 38.5545962,35.1870146 C35.8907494,35.9776393 33.2304178,36.7798665 30.5662654,37.5697378 C30.338547,37.637243 30.2731353,37.7240354 30.344049,37.9595503 C30.5717674,38.7149156 30.7680025,39.4793218 30.9935813,40.2351391 C31.1604729,40.7947695 31.1743805,40.7976324 31.7435237,40.6348966 C35.2381605,39.635729 38.7324916,38.6358079 42.2254472,37.6307637 C43.1731531,37.3581813 44.1156628,37.0685718 45.0592422,36.7824281 C45.1382559,36.7584697 45.2068771,36.7013615 45.2661756,36.6677596 L45.2661756,36.6677596 Z M28.0613631,30.5076071 C28.604525,30.3694324 29.0969469,30.2564214 29.5823386,30.1188494 C33.0240958,29.1440921 36.4653945,28.1672253 39.9045536,27.1832765 C40.5939749,26.9860347 41.2749904,26.7601634 41.9555475,26.5348949 C42.0304347,26.5101832 42.1410845,26.3846656 42.1273297,26.3352422 C41.8664469,25.4064427 41.5918093,24.4812596 41.3136567,23.5572819 C41.2522186,23.3529581 41.1226178,23.300521 40.898873,23.3668208 C39.4614961,23.7926461 38.0177004,24.1979788 36.5797122,24.6218452 C33.5237008,25.5224673 30.4704403,26.4318289 27.4141232,27.3313962 C27.2201805,27.3885044 27.1750953,27.4701737 27.2304202,27.6568678 C27.3537549,28.0738029 27.4526367,28.4976694 27.5742903,28.9149059 C27.7271214,29.438674 27.8927903,29.9588258 28.0613631,30.5076071 L28.0613631,30.5076071 Z M47.4163568,43.7318492 C47.3127373,43.7603279 47.2425878,43.778711 47.1732025,43.799053 C44.6238263,44.5455281 42.0732274,45.2883869 39.5255324,46.0399852 C37.5248199,46.6303545 35.5280811,47.2335317 33.5275216,47.824353 C33.3737734,47.8698587 33.3285354,47.9290765 33.3725508,48.0797578 C33.4404078,48.3115056 33.4815194,48.5510889 33.5553368,48.7807271 C33.776942,49.4703954 34.0083283,50.1568994 34.2371165,50.8443074 C34.3002358,51.0340152 34.411344,51.0807264 34.6115528,51.0058378 C34.8929149,50.9003609 35.1874205,50.8287872 35.4767299,50.743803 C39.2687761,49.6301176 43.0614336,48.5188431 46.8521043,47.4004865 C47.2890485,47.2715033 47.7178927,47.113288 48.1415406,46.9464838 C48.2254449,46.9134846 48.3379286,46.7582829 48.3188247,46.6930379 C48.032572,45.711952 47.7264512,44.736592 47.4163568,43.7318492 L47.4163568,43.7318492 Z M43.7594134,31.5916083 C43.4795796,30.6180565 43.2151817,29.6972431 42.9498668,28.7768818 C42.8541945,28.4449309 42.8405926,28.4328764 42.4947357,28.5184634 C41.9803061,28.6459398 41.4643482,28.7697998 40.9560318,28.9188236 C37.0759549,30.056166 33.1975591,31.1990835 29.3191633,32.3420011 C29.1206357,32.4004655 28.9273043,32.4756554 28.6985161,32.5544617 C29.0102916,33.6356 29.3124388,34.6835884 29.6234501,35.7621651 C34.3496002,34.3677604 39.0309708,32.9866157 43.7594134,31.5916083 L43.7594134,31.5916083 Z M31.7372576,42.7607082 C32.0608011,43.7606293 32.373188,44.7311675 32.6901597,45.7001989 C32.7558771,45.9009063 32.8867006,45.9283303 33.0937868,45.8674551 C36.0255465,45.0072156 38.9605157,44.1579758 41.893498,43.3016541 C43.4577247,42.8449391 45.0195061,42.380238 46.5820516,41.9182492 C46.7209752,41.8771132 46.8753346,41.858278 46.8047266,41.6363245 C46.5262683,40.7620716 46.2692063,39.8810381 45.9809668,39.0099496 C45.8583962,38.6391229 45.8314979,38.6439447 45.4500314,38.7548462 C41.3428474,39.9494474 37.2358163,41.1446514 33.1292436,42.3410609 C32.6855748,42.4703454 32.2443513,42.6076161 31.7372576,42.7607082 L31.7372576,42.7607082 Z M40.9240901,14.25 C41.2028541,14.3783805 41.4984295,14.4814465 41.7542688,14.6446343 C41.9048075,14.7406183 42.0467876,14.9154086 42.1001257,15.0834182 C42.9782934,17.8473651 43.8653253,20.6090518 44.7040626,23.3849025 C47.4114662,32.3453161 50.1038924,41.3100995 52.7914279,50.2763896 C53.253895,51.8192154 53.6737221,53.3746983 54.0941605,54.9292772 C54.2659427,55.5640975 54.0368489,56.0614964 53.4693869,56.4091181 C52.6254533,56.925955 51.4376497,56.706111 51.0920985,55.6510406 C50.6912224,54.4264537 50.3077691,53.196141 49.9230931,51.9662803 C49.6392857,51.0590283 49.3660236,50.1487626 49.0868012,49.2401544 C49.0539425,49.1331707 49.0142064,49.0282965 48.9568947,48.8623964 C44.2749128,50.2259114 39.6005725,51.5871662 34.8942904,52.9576125 C35.0685179,53.6207609 35.2202792,54.2283078 35.3882406,54.8313343 C35.859419,56.5225811 36.3338069,58.2129239 36.814308,59.9016091 C37.0313282,60.6645084 36.5387535,61.4007372 35.8322151,61.6487586 C35.0556801,61.9213411 34.195088,61.6326357 33.9025692,60.9135846 C33.5602274,60.0715776 33.2777955,59.2032013 33.0158429,58.3327155 C29.8559063,47.8345993 26.6994848,37.3354284 23.5554427,26.8324904 C22.9827844,24.9191394 22.4700359,22.9883094 21.9293194,21.0656161 C21.9037966,20.9746046 21.8764398,20.8840452 21.85,20.7931843 L21.85,20.6477769 C22.0399691,20.1054749 22.3754335,19.6752798 22.9218048,19.4640247 C23.1687799,19.3684927 23.4852932,19.2927001 23.7237097,19.3626162 C24.2806264,19.525804 24.7586822,19.8252077 24.9515551,20.4357683 C25.3837616,21.802749 25.8326266,23.1647572 26.2761426,24.5282722 C26.3699809,24.8171282 26.4699325,25.1040254 26.5839445,25.4421542 C31.3001606,24.0931046 35.9894783,22.7518904 40.6882717,21.407964 C40.6473129,21.2489952 40.6230128,21.1486415 40.5955032,21.0491918 C40.1428173,19.4117383 39.6812673,17.7763942 39.2406551,16.1356257 C39.0641352,15.4785046 39.3022461,14.9164633 39.8915629,14.5588966 C40.1165304,14.4223794 40.3819981,14.3509565 40.629126,14.25 L40.9240901,14.25 Z" id="icon-accident-unum-blue" fill="#015294"></path>
            </g>
        </g>
    </g>
</svg>