<?xml version="1.0" encoding="UTF-8"?>
<svg width="76px" height="76px" viewBox="0 0 76 76" version="1.1" xmlns="http://www.w3.org/2000/svg" xmlns:xlink="http://www.w3.org/1999/xlink">
    <!-- Generator: Sketch 48.2 (47327) - http://www.bohemiancoding.com/sketch -->
    <title>icon/cancer/unum-sand-darker</title>
    <desc>Created with Sketch.</desc>
    <defs></defs>
    <g id="Symbols" stroke="none" stroke-width="1" fill="none" fill-rule="evenodd">
        <g id="icon/cancer/unum-sand-darker">
            <g>
                <circle id="Oval-14-Copy-3" fill="#A9C2D5" cx="38" cy="38" r="38"></circle>
                <path d="M52.1260098,54.4250702 C50.3289337,51.69491 48.5346115,48.9632202 46.747327,46.2266361 C45.3893458,44.1483494 44.5362472,42.7623151 43.2082529,40.7247132 C43.1516449,40.6381434 43.0228233,40.6369198 42.9680512,40.7250191 C42.4117623,41.6185539 40.0740028,45.3688917 39.4201033,46.4162943 C39.3595174,46.5132647 39.3616594,46.6368484 39.4219393,46.7338188 C40.2224077,48.0204355 40.5268672,48.6282594 41.346307,49.9433248 C43.4695679,53.3498306 47.3195273,59.5320758 47.6322486,60.0897321 C47.6530559,60.1270519 47.678453,60.1597832 47.70691,60.1885379 L47.737509,60.2136217 L47.7996248,60.2613421 L47.8409334,60.2809198 L47.9048852,60.3069213 L47.9517016,60.3167101 L48.0168773,60.3249694 L48.0750153,60.323134 L48.1181598,60.3182396 L48.1796637,60.3008033 L48.2188304,60.2870378 L48.2809462,60.2506356 L48.3118512,60.2307521 C48.3412262,60.2078096 48.3684592,60.1808904 48.3929384,60.1490767 C48.5958094,59.884473 50.8497278,56.9793378 52.2190306,55.2167402 C52.4521946,54.916652 52.296446,54.683556 52.1260098,54.4250702 M41.2287153,27.4407171 C41.0380838,28.0568003 40.7470879,28.686955 40.365519,29.2813193 C39.5687224,30.5581471 38.76856,31.672236 38.0733519,32.6777304 L37.9616658,32.6162444 C37.2759434,31.6260451 36.4923044,30.5315338 35.7108073,29.2788721 C35.3292384,28.6845078 35.0382424,28.0543531 34.847611,27.4382699 C34.6557556,26.8209631 34.5654887,26.2189513 34.5661007,25.6866848 C34.5657947,25.1807257 34.6459639,24.7414528 34.7750915,24.3893616 C34.8723961,24.1244519 34.99418,23.9075686 35.138913,23.7224989 C35.2478452,23.5833143 35.370241,23.4609541 35.5192579,23.3465474 C35.7420182,23.1767728 36.0265884,23.0201518 36.4375323,22.8944268 C36.822467,22.7775729 37.3261257,22.6962034 37.9616658,22.685191 L37.9616658,22.6839674 L37.9950186,22.6833556 C38.6902267,22.685191 39.2290741,22.7723725 39.638794,22.896874 C40.0494319,23.0222931 40.3340021,23.1789141 40.5570684,23.3489946 C40.7057793,23.4634013 40.8281751,23.5857615 40.9374133,23.7249461 C41.0821463,23.9100158 41.2039301,24.1268991 41.3009288,24.3918088 C41.4300563,24.7435941 41.5105316,25.1831729 41.5102256,25.689132 C41.5108376,26.2210926 41.4205707,26.8231044 41.2287153,27.4407171 M47.1520593,29.199338 C47.5073131,28.0525177 47.6994745,26.8726602 47.7000864,25.689132 C47.6997805,24.7417587 47.5755487,23.7907147 47.2992402,22.8641426 C47.0232377,21.9384883 46.5914866,21.0360824 45.9871574,20.2193286 C45.5847813,19.674826 45.1062138,19.1700905 44.5600226,18.7265351 C43.8323796,18.1343121 42.9854008,17.6537427 42.0600886,17.3089931 C40.8245032,16.8476954 39.4567303,16.625 37.9950186,16.625 L37.9616658,16.6259177 L37.9616658,16.625 C36.5449346,16.6369301 35.2175523,16.858096 34.0162376,17.3065459 C33.0906195,17.6512955 32.2442526,18.1318649 31.5163037,18.7240879 C30.9701125,19.1679492 30.491239,19.6723788 30.0891688,20.2168814 C29.4845337,21.0339411 29.0527825,21.9360411 28.777086,22.8616954 C28.5004716,23.7885734 28.3762398,24.7393115 28.3762398,25.6866848 C28.3765458,26.870213 28.5690132,28.0500705 28.923961,29.1971967 C29.272789,30.3210744 29.7798135,31.4140562 30.434631,32.4452461 C30.7424564,32.9080733 33.3445908,36.7039902 34.4011724,38.3151671 C34.4317713,38.3622757 34.4308533,38.4207027 34.4002544,38.4675054 C32.7347538,41.0190199 30.9875539,43.6785172 29.3229712,46.2266667 C27.5353808,48.9629449 25.7413646,51.6949406 23.9439824,54.4251008 C23.7735463,54.6835866 23.6174917,54.9166826 23.8509617,55.2167708 C24.3215734,55.8227593 24.8968336,56.5636498 25.4574063,57.2855746 C25.6104011,57.4825744 25.7618659,57.6783506 25.9099648,57.8695382 C25.959841,57.9331655 26.0087993,57.996181 26.0571457,58.0588905 C26.1541443,58.1840038 26.2496131,58.3066698 26.3423279,58.4259709 C26.3885323,58.4856215 26.4338187,58.5443543 26.4787992,58.6021695 C26.7930503,59.0071815 27.0702768,59.3650848 27.2801856,59.6361125 C27.3101725,59.6746559 27.3386296,59.7116699 27.3658626,59.7465425 C27.4203287,59.8168996 27.4686751,59.8793033 27.5105956,59.9334476 C27.5525162,59.987592 27.587705,60.0331711 27.615856,60.0695732 C27.6437011,60.1056695 27.6645083,60.1325887 27.6773599,60.1491073 C27.7012271,60.180921 27.7290721,60.2078402 27.7581411,60.2307827 L27.789046,60.2506662 L27.8508559,60.2870684 L27.8906346,60.3008339 L27.9515265,60.3182702 L27.994977,60.3231646 L28.052809,60.325 L28.1182907,60.3167407 L28.1651071,60.3069519 L28.2293649,60.2806445 L28.2703675,60.2613727 L28.3324833,60.2136523 L28.3630823,60.1885685 C28.3912333,60.1598138 28.4169364,60.1270825 28.4377437,60.0897627 C28.7507709,59.5321064 32.6004244,53.3498612 34.7236853,49.9433554 C36.3760284,47.2924234 45.4590196,32.7220859 45.6416953,32.4476933 C46.2965128,31.4165034 46.8035373,30.3232157 47.1520593,29.199338" id="icon-cancer-white-unum-blue" fill="#015294"></path>
            </g>
        </g>
    </g>
</svg>